HIERARCHY
ROOT Hips
{
	OFFSET 0.000000 0.000000 0.000000 
	CHANNELS 6 Xposition Yposition Zposition Zrotation Yrotation Xrotation
	JOINT LeftUpLeg
	{
		OFFSET 1.363060 -1.794630 0.839290 
		CHANNELS 3 Zrotation Yrotation Xrotation
		JOINT LeftLeg
		{
			OFFSET 2.448110 -6.726130 0.000000 
			CHANNELS 3 Zrotation Yrotation Xrotation
			JOINT LeftFoot
			{
				OFFSET 2.562200 -7.039590 0.000000 
				CHANNELS 3 Zrotation Yrotation Xrotation
				JOINT LeftToeBase
				{
					OFFSET 0.157640 -0.433110 2.322550 
					CHANNELS 3 Zrotation Yrotation Xrotation
					End Site
					{
						OFFSET 0.000000 0.000000 0.000000 
					}
				}
			}
		}
	}
	JOINT RightUpLeg
	{
		OFFSET -1.305520 -1.794630 0.839290 
		CHANNELS 3 Zrotation Yrotation Xrotation
		JOINT RightLeg
		{
			OFFSET -2.542530 -6.985550 0.000000 
			CHANNELS 3 Zrotation Yrotation Xrotation
			JOINT RightFoot
			{
				OFFSET -2.568260 -7.056230 0.000000 
				CHANNELS 3 Zrotation Yrotation Xrotation
				JOINT RightToeBase
				{
					OFFSET -0.164730 -0.452590 2.363150 
					CHANNELS 3 Zrotation Yrotation Xrotation
					End Site
					{
						OFFSET 0.000000 0.000000 0.000000 
					}
				}
			}
		}
	}
	JOINT Spine
	{
		OFFSET 0.028270 2.035590 -0.193380 
		CHANNELS 3 Zrotation Yrotation Xrotation
		JOINT Spine1
		{
			OFFSET 0.056720 2.048850 -0.042750 
			CHANNELS 3 Zrotation Yrotation Xrotation
			JOINT Neck1
			{
				OFFSET -0.054170 1.746240 0.172020 
				CHANNELS 3 Zrotation Yrotation Xrotation
				JOINT Head
				{
					OFFSET 0.104070 1.761360 -0.123970 
					CHANNELS 3 Zrotation Yrotation Xrotation
					End Site
					{
						OFFSET 0.000000 0.000000 0.000000 
					}
				}
			}
			JOINT LeftArm
			{
				OFFSET 3.362410 1.200890 -0.311210 
				CHANNELS 3 Zrotation Yrotation Xrotation
				JOINT LeftForeArm
				{
					OFFSET 4.983000 -0.000000 -0.000000 
					CHANNELS 3 Zrotation Yrotation Xrotation
					JOINT LeftHand
					{
						OFFSET 3.483560 -0.000000 -0.000000 
						CHANNELS 3 Zrotation Yrotation Xrotation
						JOINT LeftHandIndex1
						{
							OFFSET 0.715260 -0.000000 -0.000000 
							CHANNELS 3 Zrotation Yrotation Xrotation
							End Site
							{
								OFFSET 0.000000 0.000000 0.000000 
							}
						}
					}
				}
			}
			JOINT RightArm
			{
				OFFSET -3.136600 1.374050 -0.404650 
				CHANNELS 3 Zrotation Yrotation Xrotation
				JOINT RightForeArm
				{
					OFFSET -5.241900 -0.000000 -0.000000 
					CHANNELS 3 Zrotation Yrotation Xrotation
					JOINT RightHand
					{
						OFFSET -3.444170 -0.000000 -0.000000 
						CHANNELS 3 Zrotation Yrotation Xrotation
						JOINT RightHandIndex1
						{
							OFFSET -0.622530 -0.000000 -0.000000 
							CHANNELS 3 Zrotation Yrotation Xrotation
							End Site
							{
								OFFSET 0.000000 0.000000 0.000000 
							}
						}
					}
				}
			}
		}
	}
}
MOTION
Frames: 9
Frame Time: 0.041667
6.905969 17.123792 34.110859 -9.616360 -62.693888 18.396408 -7.510673 1.732965 -29.878487 3.233443 15.467239 40.985054 1.691305 0.807921 7.322957 0.500700 -4.536400 -12.590900 15.174742 2.286815 -28.646968 -3.677812 -16.850813 43.907920 -1.345838 -1.295283 2.274210 -0.485900 4.469700 -12.402100 0.872565 1.822999 -4.542557 2.566260 0.776632 -16.953160 4.433475 -20.861166 11.707238 16.614700 -12.661700 7.262700 -64.860634 -3.819028 19.263705 86.122962 -54.936426 -71.987729 0.015424 -2.344627 -7.332351 -7.125000 0.000000 0.000000 62.060785 13.332841 24.142788 -85.218492 55.976100 -69.986131 -0.626994 2.040220 33.460391 7.125000 0.000000 0.000000 
6.907228 17.125394 34.112232 -9.656895 -62.692715 18.451423 -7.498170 1.731913 -29.887085 3.229843 15.462883 40.968786 1.685399 0.822833 7.341405 0.501000 -4.537700 -12.594500 15.181919 2.300291 -28.651433 -3.667881 -16.844831 43.879323 -1.340527 -1.307757 2.294132 -0.485700 4.469000 -12.400100 0.871833 1.835072 -4.541862 2.546702 0.776825 -16.946530 4.402615 -20.822373 11.716906 16.578800 -12.639100 7.253900 -64.867258 -3.827779 19.293091 86.158116 -54.939215 -72.011953 0.016671 -2.345644 -7.323312 -7.125000 0.000000 0.000000 62.035260 13.307816 24.125762 -85.225569 55.979749 -69.998858 -0.626879 2.041366 33.450263 7.125000 0.000000 0.000000 
6.908486 17.126882 34.113376 -9.686727 -62.691012 18.497163 -7.489628 1.732907 -29.898983 3.226213 15.459087 40.954211 1.683603 0.828642 7.359377 0.501000 -4.537500 -12.593900 15.185518 2.313453 -28.657894 -3.659368 -16.839585 43.854047 -1.333529 -1.323780 2.311225 -0.486100 4.470600 -12.404700 0.871234 1.846100 -4.541554 2.533931 0.778281 -16.941722 4.380825 -20.781523 11.723750 16.556000 -12.616300 7.249100 -64.873911 -3.838368 19.320601 86.189422 -54.940997 -72.033561 0.017470 -2.345909 -7.305550 -7.125000 0.000000 0.000000 62.003743 13.279953 24.107292 -85.240783 55.984720 -70.019598 -0.626558 2.042912 33.434820 7.125000 0.000000 0.000000 
6.909516 17.128140 34.114864 -9.707310 -62.694910 18.531042 -7.486786 1.735903 -29.908081 3.222616 15.455732 40.941470 1.682956 0.831673 7.373075 0.500400 -4.535100 -12.587200 15.183925 2.325920 -28.661441 -3.652677 -16.835128 43.833201 -1.326165 -1.340836 2.323645 -0.487400 4.476400 -12.420900 0.870289 1.855654 -4.540792 2.523240 0.779624 -16.936036 4.363989 -20.741021 11.726280 16.540500 -12.592700 7.243400 -64.872896 -3.848394 19.345418 86.215342 -54.942274 -72.052168 0.018165 -2.346152 -7.296086 -7.125000 0.000000 0.000000 61.981129 13.261323 24.095019 -85.249887 55.987553 -70.032513 -0.626271 2.044244 33.428306 7.125000 0.000000 0.000000 
6.910775 17.129170 34.115550 -9.712946 -62.696286 18.554451 -7.488025 1.739286 -29.923309 3.219133 15.453205 40.930896 1.685281 0.827488 7.384830 0.500400 -4.534900 -12.586700 15.178657 2.336164 -28.672006 -3.648247 -16.832037 43.818420 -1.319427 -1.356073 2.334040 -0.488100 4.479700 -12.430200 0.869990 1.860832 -4.540815 2.525238 0.781825 -16.935317 4.355936 -20.699231 11.723987 16.538900 -12.568600 7.238800 -64.868777 -3.858771 19.364752 86.234968 -54.942535 -72.067102 0.018218 -2.345536 -7.288936 -7.125000 0.000000 0.000000 61.960071 13.250922 24.086917 -85.251283 55.987757 -70.037456 -0.626266 2.045622 33.428163 7.125000 0.000000 0.000000 
6.912033 17.129856 34.116237 -9.714038 -62.697954 18.574184 -7.491519 1.744097 -29.941520 3.216155 15.451513 40.922786 1.690968 0.815702 7.394892 0.499400 -4.530600 -12.574400 15.173103 2.342837 -28.687477 -3.645737 -16.830267 43.808737 -1.310837 -1.375375 2.340941 -0.490700 4.491300 -12.463100 0.869381 1.865462 -4.541211 2.525070 0.783387 -16.938553 4.349401 -20.667447 11.715780 16.535900 -12.546900 7.230100 -64.853386 -3.868404 19.383306 86.247795 -54.941820 -72.078295 0.017822 -2.344395 -7.292240 -7.125000 0.000000 0.000000 61.948857 13.248266 24.075052 -85.240455 55.985265 -70.032252 -0.626294 2.045628 33.441664 7.125000 0.000000 0.000000 
6.913521 17.130314 34.116580 -9.707333 -62.695893 18.587585 -7.496801 1.745227 -29.962344 3.213820 15.451307 40.918046 1.697190 0.802101 7.402381 0.498800 -4.527900 -12.566800 15.166526 2.345942 -28.707653 -3.645402 -16.829723 43.804849 -1.302201 -1.394414 2.344420 -0.493100 4.502400 -12.494700 0.869510 1.867545 -4.542271 2.530246 0.785064 -16.948735 4.344949 -20.645428 11.701305 16.533900 -12.527800 7.217600 -64.836998 -3.876694 19.402676 86.261018 -54.940936 -72.090161 0.017665 -2.343310 -7.306822 -7.125000 0.000000 0.000000 61.934781 13.247036 24.063515 -85.226198 55.981783 -70.024155 -0.626695 2.045843 33.457156 7.125000 0.000000 0.000000 
6.915008 17.130543 34.117038 -9.701141 -62.693454 18.601050 -7.502355 1.746951 -29.984759 3.212358 15.451910 40.915990 1.703358 0.788171 7.407890 0.498000 -4.524200 -12.556400 15.159527 2.349474 -28.728704 -3.645987 -16.830103 43.804337 -1.297482 -1.404496 2.348076 -0.494100 4.506900 -12.507400 0.869951 1.870156 -4.543730 2.536073 0.786903 -16.964166 4.341231 -20.633634 11.681354 16.531600 -12.511700 7.201300 -64.824694 -3.883350 19.423277 86.276357 -54.940386 -72.103602 0.017850 -2.342007 -7.324388 -7.125000 0.000000 0.000000 61.919089 13.246152 24.049004 -85.208291 55.977675 -70.014091 -0.627201 2.045777 33.473011 7.125000 0.000000 0.000000 
6.916381 17.130543 34.117610 -9.690910 -62.689438 18.611075 -7.508876 1.745325 -30.008223 3.211156 15.453561 40.916150 1.711659 0.769288 7.414137 0.495800 -4.514400 -12.528500 15.151241 2.353218 -28.751277 -3.647739 -16.831156 43.807105 -1.292791 -1.414448 2.349643 -0.494700 4.509300 -12.514200 0.870965 1.871663 -4.545387 2.544644 0.788740 -16.982655 4.337024 -20.629435 11.656733 16.527900 -12.497300 7.180700 -64.819175 -3.888130 19.446072 86.297245 -54.940663 -72.120587 0.018454 -2.340861 -7.336205 -7.125000 0.000000 0.000000 61.895285 13.243523 24.035519 -85.191015 55.973696 -70.004964 -0.627901 2.046517 33.483130 7.125000 0.000000 0.000000 
